<svg height="128" viewBox="0 0 64 64" width="128" xmlns="http://www.w3.org/2000/svg">
    <path d="M56 4c-7 0-8 6-8 8s0 4 2 4 2-2 2-4 1-4 4-4 4 2 4 4c0 10-12 16-18 16h-20c-6 0-18-6-18-16 0-2 1-4 4-4s4 2 4 4 0 4 2 4 2-2 2-4-1-8-8-8c-5 0-8 4-8 8 0 12 14 20 22 20h20c8 0 22-8 22-20 0-4-3-8-8-8z"
          fill="#E6B85C"/>
    <path d="M50 4c0-2.001 0-4-2-4h-32s-2 1.999-2 4c0 34 14 30 14 34v4l-6 6h20l-6-6v-4c0-4 14 0 14-34z" fill="#fc6"/>
    <path d="M50 52h-36c-1.104 0-2 .895-2 2v8c0 1.104.896 2 2 2h36c1.104 0 2-.896 2-2v-8c0-1.105-.896-2-2-2z"
          fill="#666"/>
    <path fill="#E6E6E6" d="M22 56h20v4h-20z"/>
    <path d="M42 48h-20s-6 0-6 4h32c0-4-6-4-6-4zm-14-6h8c1.104 0 2-.896 2-2 0-1.105-.896-2-2-2h-8c-1.104 0-2 .895-2 2 0 1.104.896 2 2 2z"
          fill-rule="evenodd" clip-rule="evenodd" fill="#E6B85C"/>
    <path d="M36 19.999h-2v-14h-2c-.744 0-1.387.411-1.73 1.015l-3.7 3.701c-.75.749-.75 1.966 0 2.715.749.75 1.965.75 2.715 0l.715-.716v7.285h-2c-1.105 0-2 .896-2 2s.895 2 2 2h8c1.104 0 2-.896 2-2s-.896-2-2-2z"
          fill-rule="evenodd" clip-rule="evenodd" fill="#CCA352"/>
</svg>
