<svg xmlns="http://www.w3.org/2000/svg" width="58" height="48" fill="#ffd845" viewBox="0 0 404.09 404.091"><path d="M195.591 99.628v28.446c-.011 14.726-43.794 26.667-97.795 26.667-54.012.001-97.784-11.941-97.796-26.666v-28.447c0 14.73 43.784 26.67 97.795 26.67 54.013.001 97.796-11.939 97.796-26.67zm0-5.386c0 14.733-43.783 26.673-97.795 26.673s-97.796-11.94-97.796-26.673c0-14.731 43.784-26.67 97.795-26.67 54.013-.001 97.796 11.939 97.796 26.67zm-50.588-1.517l-85.911-5.863-2.92 5.25 3.185.443c4.365.615 9.907 1.961 7.335 6.55l-.801 1.428 15.88 1.083.801-1.431c1.104-1.983 1.445-3.68 1.029-5.13l57.894 3.948 3.508-6.278zm-47.208 69.284c-54.011 0-97.795-11.94-97.795-26.673v28.449c.012 14.726 43.784 26.668 97.795 26.668 54.001 0 97.784-11.942 97.795-26.668v-28.449c.001 14.733-43.789 26.673-97.795 26.673zm0 35.913c-54.011 0-97.795-11.943-97.795-26.672v28.451c.012 14.719 43.784 26.658 97.795 26.658 54.001 0 97.784-11.939 97.795-26.658v-28.451c.001 14.729-43.789 26.672-97.795 26.672zm0 35.295c-54.011 0-97.795-11.941-97.795-26.676v28.454c.012 14.719 43.784 26.665 97.795 26.665 54.001 0 97.784-11.946 97.795-26.665v-28.454c.001 14.752-43.789 26.676-97.795 26.676zm0 34.873c-54.011 0-97.795-11.946-97.795-26.676v28.442c.012 14.73 43.784 26.67 97.795 26.67 54.001 0 97.784-11.939 97.795-26.67v-28.442c.001 14.73-43.789 26.676-97.795 26.676zm0 34.801c-54.011 0-97.795-11.94-97.795-26.676v28.454c.012 14.721 43.784 26.665 97.795 26.665 54.001 0 97.784-11.944 97.795-26.665v-28.454c.001 14.736-43.789 26.676-97.795 26.676zm111.311-201.358h.714v.722c15.497 2.818 34.122 4.471 54.162 4.471 53.995 0 97.771-11.94 97.795-26.665v-28.449c0 14.732-43.787 26.673-97.795 26.673-54.009 0-97.797-11.946-97.797-26.679v10.704c23.467 5.642 43.635 15.74 43.635 33.833 0 1.893-.284 3.664-.714 5.39zm-42.921-55.311c0-14.731 43.789-26.67 97.797-26.67 54.008 0 97.795 11.939 97.795 26.67 0 14.736-43.787 26.678-97.795 26.678-54.009 0-97.797-11.942-97.797-26.678zm50.572 1.518l85.909 5.861 2.928-5.245-3.19-.441c-4.378-.618-9.898-1.961-7.349-6.549l.816-1.437-15.879-1.081-.789 1.434c-1.117 1.984-1.456 3.683-1.041 5.133l-57.893-3.951-3.512 6.276zm47.225 94.69c53.995 0 97.771-11.939 97.795-26.665v-28.449c0 14.73-43.787 26.673-97.795 26.673-20.04 0-38.665-1.652-54.162-4.479v20.466c-.013 2.583-.448 4.985-1.228 7.256h1.228v.722c15.489 2.83 34.122 4.476 54.162 4.476zm-54.162 30.723v.726c15.497 2.818 34.122 4.47 54.162 4.47 53.995 0 97.771-11.94 97.795-26.667v-28.446c0 14.736-43.787 26.676-97.795 26.676-20.04 0-38.665-1.647-54.162-4.47v20.243c-.013 2.667-.494 5.144-1.315 7.469h1.315zm151.957 11.124v-25.743c0 8.901-16.034 16.755-40.593 21.601 10.78.482 25.735 1.598 40.593 4.142zm-151.957 13.968c9.497-6.465 23.682-10.673 38.335-13.409-13.986-.621-26.998-2.038-38.335-4.101v17.51zm96.474 50.934c-54.014 0-97.795-11.946-97.795-26.688v28.454c.027 14.73 43.792 26.671 97.795 26.671 54.017 0 97.785-11.94 97.796-26.671v-28.454c.008 14.741-43.779 26.688-97.796 26.688zm0-58.726c54.017 0 97.796 11.94 97.796 26.665 0 14.731-43.779 26.676-97.796 26.676-54.014 0-97.795-11.944-97.795-26.676.001-14.725 43.793-26.665 97.795-26.665zm14.203 25.849l-57.896-3.95-3.502 6.282 85.91 5.865 2.924-5.258-3.185-.433c-4.361-.623-9.894-1.963-7.335-6.561l.799-1.424-15.88-1.078-.785 1.424c-1.129 1.987-1.474 3.688-1.05 5.133zm-14.203 68.575c-54.014 0-97.795-11.945-97.795-26.676v28.46c.027 14.73 43.792 26.673 97.795 26.673 54.017 0 97.785-11.942 97.796-26.673v-28.442c.008 14.713-43.779 26.658-97.796 26.658zm0 35.913c-54.014 0-97.795-11.939-97.795-26.67v28.449c.027 14.719 43.792 26.665 97.795 26.665 54.017 0 97.785-11.946 97.796-26.665v-28.449c.008 14.741-43.779 26.67-97.796 26.67zm0 35.313c-54.014 0-97.795-11.947-97.795-26.678v28.454c.027 14.721 43.792 26.66 97.795 26.66 54.017 0 97.785-11.939 97.796-26.66v-28.454c.008 14.73-43.779 26.678-97.796 26.678z"/></svg>
