<svg height="20" width="20" fill="#edc850" viewBox="0 0 512 512" xmlns="http://www.w3.org/2000/svg">
    <path d="M511.603 303.727l-47.694 47.726-47.726-47.726-47.726 47.726-47.693-47.726 47.693-47.727-47.693-47.725 47.693-47.726 47.726 47.726 47.726-47.726 47.694 47.726-47.696 47.725 47.696 47.727zm-255.337 208.141l-127.934-127.932h-95.951c-17.678 0-31.983-14.307-31.983-31.983v-191.903c0-17.679 14.307-31.983 31.983-31.983h95.951l127.934-127.934s31.983-3.998 31.983 31.983v447.769c0 35.981-31.983 31.983-31.983 31.983zm-31.984-383.802l-63.968 63.967h-95.95v127.934h95.951l63.968 63.969v-255.87z"/>
</svg>
